M48
; DRILL file KiCad 10.0.3 date 2026-07-12T23:11:42
; FORMAT={-:-/ absolute / metric / decimal}
; #@! TF.CreationDate,2026-07-12T23:11:42+05:30
; #@! TF.GenerationSoftware,Kicad,Pcbnew,10.0.3
; #@! TF.FileFunction,Plated,1,2,PTH
FMAT,2
METRIC
; #@! TA.AperFunction,Plated,PTH,ComponentDrill
T1C0.710
; #@! TA.AperFunction,Plated,PTH,ComponentDrill
T2C0.800
; #@! TA.AperFunction,Plated,PTH,ComponentDrill
T3C1.000
%
G90
G05
T1
X140.92Y-96.2
X143.46Y-96.2
X146.0Y-96.2
T2
X125.6Y-97.2
X125.6Y-104.8
T3
X135.54Y-81.4
X135.54Y-85.0
X135.54Y-88.6
X135.626Y-77.8
X138.08Y-81.4
X138.08Y-85.0
X138.08Y-88.6
X138.166Y-77.8
X140.62Y-81.4
X140.62Y-85.0
X140.62Y-88.6
X140.706Y-77.8
X143.16Y-81.4
X143.16Y-85.0
X143.16Y-88.6
X143.246Y-77.8
X144.77Y-126.0
X144.8Y-122.2
X145.7Y-81.4
X145.7Y-85.0
X145.7Y-88.6
X145.786Y-77.8
X147.31Y-126.0
X147.34Y-122.2
X148.24Y-81.4
X148.24Y-85.0
X148.24Y-88.6
X148.326Y-77.8
X149.85Y-126.0
X149.88Y-122.2
X150.78Y-81.4
X150.78Y-85.0
X150.78Y-88.6
X150.866Y-77.8
X152.39Y-126.0
X152.42Y-122.2
X153.32Y-81.4
X153.32Y-85.0
X153.32Y-88.6
X153.406Y-77.8
X154.93Y-126.0
X154.96Y-122.2
X155.86Y-81.4
X155.86Y-85.0
X155.86Y-88.6
X155.946Y-77.8
X157.47Y-126.0
X157.5Y-122.2
X158.4Y-81.4
X158.4Y-85.0
X158.4Y-88.6
X158.486Y-77.8
X160.01Y-126.0
X160.04Y-122.2
X162.4Y-88.6
X162.42Y-85.0
X162.46Y-81.4
X162.527Y-77.718
X162.55Y-126.0
X162.58Y-122.2
X164.94Y-88.6
X164.96Y-85.0
X165.0Y-81.4
X165.067Y-77.718
X166.6Y-122.2
X167.48Y-88.6
X167.5Y-85.0
X167.54Y-81.4
X167.607Y-77.718
X167.953Y-125.882
X169.14Y-122.2
X170.02Y-88.6
X170.04Y-85.0
X170.08Y-81.4
X170.147Y-77.718
X170.493Y-125.882
X171.68Y-122.2
X172.56Y-88.6
X172.58Y-85.0
X172.62Y-81.4
X172.687Y-77.718
X173.033Y-125.882
X174.22Y-122.2
X175.1Y-88.6
X175.12Y-85.0
X175.16Y-81.4
X175.227Y-77.718
X175.573Y-125.882
X176.76Y-122.2
X177.64Y-88.6
X177.66Y-85.0
X177.7Y-81.4
X177.767Y-77.718
X178.113Y-125.882
X179.3Y-122.2
X180.18Y-88.6
X180.2Y-85.0
X180.24Y-81.4
X180.307Y-77.718
X180.653Y-125.882
M30
